<svg width="809" height="636" viewBox="0 0 809 636" fill="none" xmlns="http://www.w3.org/2000/svg">
<path d="M480.368 177.411C460.635 158.78 439.779 141.972 419.064 124.72C399.732 108.62 382.078 88.794 362.306 73.754C331.459 50.2929 289.545 45.7866 253.039 65.1398C253.039 65.1398 84.1857 142.603 39.8901 302.195C27.2318 347.801 47.5976 387.145 79.0847 407.475C118.666 433.02 161.427 420.139 206.173 417.91C236.699 416.389 267.546 416.418 296.614 424.791C325.001 432.976 344.589 464.141 364.324 487.487C388.818 516.461 409.237 550.283 442.652 566.432C475.408 582.27 512.479 584.583 548.851 573.91C548.851 573.91 622.826 551.64 713.169 436.081C752.279 386.008 790.174 314.496 767.054 250.616C748.602 199.594 680.853 205.792 639.803 210.894C607.699 214.892 575.062 218.062 543.778 212.505C519.577 208.233 498.942 194.992 480.609 177.674L480.368 177.411Z" fill="#BABABA"/>
<g clip-path="url(#clip0_1356_2814)">
<g filter="url(#filter0_b_1356_2814)">
<path d="M623.902 307.058H359.016C353.484 307.058 349 311.527 349 317.04V475.99C349 481.503 353.484 485.971 359.016 485.971H623.902C629.434 485.971 633.918 481.503 633.918 475.99V317.04C633.918 311.527 629.434 307.058 623.902 307.058Z" fill="#444545"/>
</g>
<path opacity="0.1" d="M353.996 349.487C353.995 347.723 354.545 346.001 355.568 344.56C356.591 343.12 358.038 342.032 359.708 341.446L486.738 297.813C488.013 297.39 489.371 297.276 490.7 297.483C492.028 297.689 493.287 298.21 494.372 299C495.457 299.791 496.336 300.829 496.936 302.028C497.537 303.226 497.84 304.551 497.822 305.89V421.92C497.838 423.699 497.294 425.438 496.264 426.892C495.236 428.345 493.774 429.439 492.086 430.02L364.493 472.214C363.215 472.623 361.857 472.721 360.534 472.501C359.21 472.28 357.958 471.747 356.883 470.946C355.807 470.146 354.94 469.101 354.352 467.898C353.764 466.695 353.473 465.37 353.504 464.033L353.996 349.487Z" stroke="#F89D5E" stroke-miterlimit="10"/>
<path opacity="0.1" d="M332.252 383.792C332.254 382.031 332.803 380.314 333.824 378.877C334.845 377.439 336.286 376.351 337.952 375.763L464.994 332.13C466.268 331.704 467.626 331.588 468.955 331.793C470.282 331.998 471.542 332.517 472.628 333.307C473.713 334.097 474.592 335.134 475.193 336.333C475.793 337.531 476.096 338.856 476.077 340.195V456.236C476.088 458.022 475.534 459.765 474.494 461.219C473.454 462.673 471.98 463.764 470.283 464.336L342.749 506.52C341.471 506.927 340.113 507.026 338.789 506.805C337.465 506.585 336.213 506.052 335.138 505.251C334.063 504.451 333.195 503.406 332.607 502.203C332.02 501 331.729 499.675 331.759 498.338L332.252 383.792Z" stroke="#F89D5E" stroke-miterlimit="10"/>
<path d="M472.965 355.405C473.702 355.369 474.436 355.507 475.113 355.809C475.79 356.111 476.389 356.568 476.871 357.147C477.406 357.896 477.712 358.794 477.746 359.725H467.847C468.046 358.856 468.41 358.038 468.925 357.321C469.403 356.693 470.019 356.193 470.723 355.86C471.423 355.526 472.194 355.371 472.965 355.405ZM467.746 364.254H483.335C483.615 362.458 483.537 360.622 483.116 358.857C482.695 357.091 481.931 355.431 480.877 353.976C479.924 352.771 478.712 351.813 477.339 351.178C475.965 350.543 474.467 350.249 472.965 350.318C471.342 350.309 469.74 350.669 468.268 351.374C466.794 352.078 465.491 353.11 464.447 354.394C462.635 356.892 461.686 359.947 461.753 363.069C461.713 366.017 462.666 368.887 464.447 371.186C465.561 372.45 466.925 373.45 468.45 374.117C469.972 374.785 471.615 375.104 473.268 375.053C475.406 375.037 477.494 374.397 479.295 373.207C481.022 372.019 482.359 370.319 483.133 368.33L477.544 366.657C477.231 367.406 476.746 368.064 476.13 368.573C475.217 369.274 474.1 369.63 472.965 369.584C472.181 369.619 471.403 369.456 470.692 369.11C469.982 368.764 469.366 368.245 468.891 367.598C468.255 366.659 467.861 365.568 467.746 364.428" fill="white"/>
<path d="M514.984 352.622C514.244 351.874 513.375 351.291 512.425 350.907C511.476 350.524 510.466 350.346 509.454 350.386C508.161 350.383 506.885 350.708 505.726 351.334C504.57 351.961 503.563 352.871 502.791 353.993C502.487 353.478 502.144 352.995 501.758 352.55C501.018 351.802 500.149 351.219 499.199 350.835C498.25 350.451 497.24 350.274 496.227 350.314C495.021 350.309 493.829 350.59 492.736 351.139C491.643 351.688 490.674 352.489 489.897 353.488V350.891H485V375.058H490.597V360.45C490.52 359.245 490.877 358.055 491.596 357.131C491.95 356.705 492.379 356.362 492.862 356.126C493.346 355.89 493.865 355.765 494.395 355.761C494.925 355.756 495.448 355.868 495.934 356.092C496.424 356.315 496.864 356.644 497.227 357.059C497.98 358.077 498.35 359.366 498.26 360.666V375.058H503.89V360.45C503.843 359.852 503.91 359.251 504.08 358.682C504.253 358.112 504.526 357.585 504.889 357.131C505.243 356.705 505.672 356.362 506.155 356.126C506.638 355.89 507.158 355.765 507.688 355.761C508.211 355.752 508.734 355.863 509.214 356.087C509.697 356.31 510.13 356.642 510.486 357.059C511.263 358.064 511.646 359.359 511.553 360.666V375.058H517.183V360.378C517.336 358.996 517.226 357.594 516.86 356.261C516.493 354.927 515.877 353.688 515.051 352.622" fill="white"/>
<path d="M541.25 358.075C541.005 356.798 540.506 355.589 539.785 354.524C539.064 353.458 538.135 352.561 537.058 351.89C535.345 350.749 533.323 350.201 531.291 350.326C529.688 350.264 528.092 350.601 526.64 351.308C525.188 352.016 523.92 353.073 522.941 354.392C521.1 356.756 520.148 359.73 520.259 362.766C520.178 365.808 521.127 368.783 522.941 371.176C523.91 372.475 525.171 373.507 526.616 374.18C528.062 374.853 529.644 375.146 531.224 375.033C533.521 375.206 535.798 374.501 537.628 373.052C539.386 371.58 540.65 369.575 541.25 367.318L535.549 366.067C535.335 367.022 534.859 367.892 534.175 368.569C533.336 369.254 532.29 369.6 531.224 369.542C530.473 369.573 529.725 369.407 529.051 369.061C528.377 368.716 527.8 368.2 527.368 367.562C526.466 366.143 526.033 364.461 526.127 362.766C526.033 361.049 526.469 359.346 527.368 357.901C527.803 357.272 528.387 356.765 529.058 356.425C529.732 356.085 530.476 355.924 531.224 355.955C532.257 355.954 533.256 356.336 534.041 357.032C534.832 357.765 535.402 358.718 535.684 359.778L541.25 358.075Z" fill="white"/>
<path d="M554.799 367.43C554.298 368.267 553.613 368.951 552.811 369.422C552.009 369.893 551.111 370.135 550.201 370.125C549.84 370.169 549.475 370.131 549.126 370.014C548.777 369.897 548.454 369.703 548.175 369.445C547.899 369.187 547.67 368.869 547.506 368.51C547.341 368.152 547.242 367.76 547.22 367.36C547.22 365.784 548.647 364.944 550.233 364.559L555.497 363.369C555.614 364.768 555.373 366.176 554.799 367.43ZM560.73 374.431V360.428C560.818 359.02 560.615 357.608 560.137 356.298C559.658 354.989 558.919 353.816 557.971 352.867C556.252 351.273 554.095 350.372 551.85 350.311C550.252 350.274 548.663 350.596 547.179 351.258C545.695 351.92 544.35 352.908 543.224 354.162L546.237 358.083C547.67 356.649 549.535 355.862 551.47 355.877C553.88 355.877 555.148 357.068 555.497 358.748C552.158 359.083 548.869 359.858 545.698 361.058C544.525 361.612 543.538 362.558 542.876 363.764C542.216 364.97 541.918 366.375 542.019 367.78C541.984 368.762 542.14 369.742 542.473 370.654C542.806 371.566 543.307 372.391 543.947 373.075C544.588 373.758 545.352 374.285 546.19 374.622C547.027 374.958 547.918 375.096 548.806 375.026C550.176 375.154 551.552 374.901 552.811 374.289C554.067 373.677 555.167 372.727 556.005 371.525V374.396L560.73 374.431Z" fill="white"/>
<path d="M583.613 357.114C582.725 354.692 580.95 352.691 578.647 351.509C577.126 350.72 575.432 350.311 573.717 350.318C571.984 350.249 570.255 350.548 568.645 351.194C567.402 351.712 566.342 352.583 565.595 353.699C564.852 354.815 564.454 356.124 564.454 357.464C564.451 358.802 564.856 360.11 565.617 361.213C566.631 362.357 567.913 363.236 569.35 363.77C570.054 364.05 570.793 364.225 575.231 365.486C576.851 365.977 578.753 366.292 578.753 367.693C578.749 367.998 578.661 368.296 578.499 368.555C578.337 368.814 578.108 369.025 577.837 369.165C576.879 369.7 575.801 369.978 574.703 369.97C573.907 370.017 573.111 369.898 572.364 369.621C571.618 369.343 570.941 368.914 570.371 368.359C569.698 367.519 569.226 366.536 568.997 365.486L563.75 366.853C564.12 368.708 564.969 370.434 566.215 371.862C567.279 372.987 568.589 373.855 570.04 374.402C571.491 374.948 573.051 375.158 574.597 375.015C576.738 375.128 578.862 374.59 580.69 373.474C581.69 372.852 582.517 371.991 583.095 370.968C583.672 369.946 583.986 368.796 584 367.623C584 363.77 581.077 361.318 576.675 360.127L572.378 358.901C570.97 358.515 569.843 358.27 569.843 357.254C569.843 356.238 571.744 355.292 573.364 355.398C574.389 355.352 575.407 355.628 576.266 356.188C577.126 356.747 577.784 357.561 578.154 358.515L583.613 357.114Z" fill="white"/>
<path d="M604.949 353.316C603.988 352.345 602.839 351.614 601.586 351.174C600.332 350.734 599.006 350.596 597.697 350.771C596.647 350.799 595.614 351.059 594.659 351.533C593.707 352.007 592.854 352.686 592.152 353.528L591.856 353.882V343.558H587V375.058H592.48V364.771C592.44 363.27 592.519 361.768 592.71 360.281C592.874 359.087 593.448 358.003 594.317 357.24C595.069 356.671 595.958 356.351 596.877 356.321C597.484 356.291 598.088 356.397 598.652 356.635C599.22 356.873 599.732 357.235 600.158 357.7C601.28 359.525 601.789 361.708 601.602 363.887V375.058H607.115V363.639C607.604 359.998 606.757 356.295 604.752 353.316" fill="white"/>
<g opacity="0.15">
<g opacity="0.15">
<path opacity="0.15" d="M434.602 350.053L452.507 355.877V351.77L434.602 350.053Z" fill="black"/>
</g>
</g>
<path d="M451.997 355.186C452.014 355.485 451.954 355.783 451.824 356.053C451.698 356.323 451.501 356.556 451.258 356.729C451.015 356.903 450.735 357.012 450.439 357.047C450.143 357.081 449.843 357.04 449.567 356.926L438.546 352.074C438.177 351.958 437.784 351.958 437.414 352.074L436.249 352.408C435.826 352.507 435.383 352.453 435 352.256C434.614 352.058 434.311 351.73 434.141 351.329C433.975 350.928 433.955 350.48 434.085 350.065C434.215 349.65 434.484 349.294 434.85 349.062L449.3 339.356C449.567 339.175 449.88 339.072 450.203 339.06C450.526 339.047 450.842 339.126 451.125 339.286C451.405 339.446 451.634 339.681 451.788 339.966C451.944 340.25 452.014 340.572 451.997 340.896V355.186Z" fill="#AC5326"/>
<path d="M463.249 361.233C463.246 360.863 463.133 360.504 462.923 360.202C462.716 359.9 462.425 359.67 462.085 359.542L436.231 350.391C435.972 350.307 435.701 350.287 435.432 350.332C435.164 350.378 434.912 350.488 434.695 350.653C434.479 350.818 434.301 351.033 434.182 351.282C434.059 351.53 433.997 351.804 434.001 352.082V376.419C433.991 376.792 434.098 377.159 434.308 377.464C434.518 377.769 434.818 377.996 435.164 378.11L461.019 386.963C461.278 387.055 461.552 387.081 461.824 387.039C462.092 386.997 462.347 386.887 462.567 386.721C462.787 386.554 462.965 386.335 463.084 386.083C463.2 385.831 463.259 385.552 463.249 385.272V361.233Z" fill="#F17922"/>
<path d="M592.833 432.392H581.167V451.559H592.833V432.392Z" fill="#F26522"/>
<path d="M582.298 441.555C582.293 439.664 582.714 437.797 583.529 436.096C584.343 434.394 585.531 432.902 587 431.734C585.177 430.283 582.987 429.381 580.681 429.13C578.375 428.879 576.046 429.29 573.959 430.315C571.873 431.34 570.114 432.938 568.883 434.926C567.653 436.915 567 439.212 567 441.559C567 443.904 567.653 446.203 568.883 448.192C570.114 450.18 571.873 451.777 573.959 452.802C576.046 453.827 578.375 454.238 580.681 453.987C582.987 453.736 585.177 452.834 587 451.384C585.531 450.213 584.344 448.719 583.529 447.017C582.715 445.314 582.294 443.446 582.298 441.555Z" fill="#E51B24"/>
<path d="M607 441.554C607 443.9 606.347 446.199 605.116 448.187C603.886 450.176 602.127 451.774 600.041 452.8C597.956 453.826 595.626 454.237 593.321 453.987C591.014 453.738 588.824 452.837 587 451.388C588.471 450.217 589.66 448.725 590.478 447.022C591.295 445.32 591.72 443.451 591.72 441.558C591.72 439.665 591.295 437.797 590.478 436.094C589.66 434.392 588.471 432.899 587 431.729C588.824 430.281 591.013 429.38 593.318 429.13C595.624 428.879 597.953 429.29 600.038 430.315C602.123 431.339 603.882 432.937 605.114 434.925C606.345 436.912 606.998 439.209 607 441.554Z" fill="#F99F1C"/>
<path d="M400.175 405.175C400.352 405.421 400.49 405.695 400.583 405.984C400.777 406.568 400.777 407.199 400.583 407.782C400.488 408.062 400.35 408.326 400.175 408.564C400.117 408.64 400.076 408.727 400.052 408.82C400.028 408.912 400.023 409.008 400.037 409.103C400.05 409.197 400.082 409.288 400.131 409.37C400.179 409.452 400.244 409.524 400.32 409.581C400.476 409.694 400.67 409.741 400.86 409.713C401.05 409.684 401.222 409.582 401.337 409.429C401.603 409.069 401.811 408.67 401.953 408.246C402.249 407.361 402.249 406.405 401.953 405.521C401.81 405.097 401.602 404.698 401.337 404.338C401.28 404.261 401.209 404.197 401.128 404.148C401.046 404.1 400.955 404.067 400.861 404.054C400.767 404.04 400.671 404.045 400.579 404.068C400.487 404.091 400.4 404.132 400.324 404.189C400.247 404.246 400.183 404.317 400.134 404.399C400.085 404.48 400.053 404.571 400.039 404.665C400.025 404.759 400.03 404.855 400.053 404.947C400.077 405.039 400.118 405.126 400.175 405.202V405.175ZM402.652 403.854C403.213 404.765 403.51 405.814 403.51 406.883C403.51 407.953 403.213 409.002 402.652 409.913C402.602 409.994 402.569 410.084 402.553 410.177C402.538 410.271 402.542 410.367 402.563 410.46C402.585 410.552 402.625 410.639 402.681 410.716C402.736 410.794 402.807 410.859 402.887 410.909C402.968 410.959 403.058 410.992 403.152 411.008C403.246 411.023 403.342 411.019 403.434 410.998C403.527 410.976 403.614 410.936 403.691 410.88C403.768 410.825 403.834 410.755 403.884 410.674C404.591 409.531 404.965 408.213 404.965 406.869C404.965 405.526 404.591 404.208 403.884 403.065C403.834 402.984 403.768 402.914 403.691 402.858C403.614 402.803 403.527 402.763 403.434 402.741C403.342 402.719 403.246 402.716 403.152 402.731C403.058 402.746 402.968 402.78 402.887 402.83C402.807 402.88 402.736 402.945 402.681 403.022C402.625 403.099 402.585 403.187 402.563 403.279C402.519 403.466 402.551 403.663 402.652 403.826V403.854ZM405.282 402.443C406.057 403.78 406.465 405.299 406.465 406.845C406.465 408.391 406.057 409.91 405.282 411.248C405.234 411.33 405.203 411.42 405.19 411.514C405.177 411.608 405.183 411.703 405.207 411.794C405.231 411.886 405.273 411.972 405.331 412.047C405.388 412.122 405.46 412.186 405.541 412.234C405.623 412.281 405.713 412.312 405.807 412.325C405.901 412.338 405.997 412.332 406.088 412.308C406.18 412.284 406.266 412.242 406.341 412.185C406.416 412.127 406.48 412.056 406.527 411.974C407.438 410.417 407.918 408.646 407.918 406.842C407.918 405.038 407.438 403.267 406.527 401.709C406.483 401.624 406.421 401.548 406.346 401.488C406.271 401.428 406.184 401.384 406.091 401.359C405.998 401.334 405.9 401.329 405.805 401.344C405.71 401.36 405.619 401.394 405.538 401.446C405.373 401.546 405.254 401.706 405.206 401.892C405.158 402.078 405.185 402.276 405.282 402.443ZM407.898 401.059C408.9 402.822 409.427 404.814 409.427 406.842C409.427 408.869 408.9 410.862 407.898 412.624C407.806 412.791 407.784 412.988 407.837 413.171C407.891 413.354 408.014 413.508 408.181 413.6C408.348 413.691 408.545 413.713 408.728 413.66C408.911 413.607 409.065 413.483 409.157 413.316C410.283 411.336 410.875 409.098 410.875 406.821C410.875 404.544 410.283 402.306 409.157 400.326C409.113 400.241 409.052 400.166 408.978 400.105C408.903 400.045 408.817 400.001 408.725 399.975C408.633 399.95 408.536 399.944 408.441 399.958C408.346 399.972 408.256 400.005 408.174 400.056C408.089 400.099 408.013 400.16 407.952 400.234C407.891 400.308 407.846 400.394 407.82 400.486C407.794 400.579 407.787 400.676 407.801 400.771C407.814 400.866 407.847 400.957 407.898 401.038" fill="#F17922"/>
<path d="M392.735 397.058H376.957C375.324 397.058 374 398.369 374 399.985V413.654C374 415.27 375.324 416.581 376.957 416.581H392.735C394.367 416.581 395.691 415.27 395.691 413.654V399.985C395.691 398.369 394.367 397.058 392.735 397.058Z" fill="url(#paint0_linear_1356_2814)"/>
<path d="M387.015 404.289H394.968" stroke="#231F20" stroke-width="0.47" stroke-miterlimit="10"/>
<path d="M374 410.073H395.691" stroke="#231F20" stroke-width="0.47" stroke-miterlimit="10"/>
<path d="M374 404.289H384.846" stroke="#231F20" stroke-width="0.47" stroke-miterlimit="10"/>
<path d="M384.846 401.397L381.953 397.058" stroke="#231F20" stroke-width="0.47" stroke-miterlimit="10"/>
<path d="M384.846 401.397L387.738 397.058" stroke="#231F20" stroke-width="0.47" stroke-miterlimit="10"/>
<path d="M384.846 404.289V401.397" stroke="#231F20" stroke-width="0.47" stroke-miterlimit="10"/>
<path d="M384.846 412.965L387.738 416.581" stroke="#231F20" stroke-width="0.47" stroke-miterlimit="10"/>
<path d="M384.846 412.965L381.953 416.581" stroke="#231F20" stroke-width="0.47" stroke-miterlimit="10"/>
<path d="M384.846 410.073V412.965" stroke="#231F20" stroke-width="0.47" stroke-miterlimit="10"/>
<path d="M387.015 404.289V410.073" stroke="#231F20" stroke-width="0.47" stroke-miterlimit="10"/>
<path d="M382.676 404.289V410.073" stroke="#231F20" stroke-width="0.47" stroke-miterlimit="10"/>
</g>
<path d="M455.104 211.233L461.444 208.102L517.73 205.151L523.097 206.892C525.577 207.697 527.971 208.748 530.242 210.029L531.112 210.52C533.996 212.147 536.615 214.205 538.879 216.622L540.826 218.701C543.588 221.651 545.497 225.296 546.347 229.247L547.925 230.648C551.863 234.145 555.441 238.027 558.605 242.237L558.958 242.707C561.824 246.521 564.33 250.648 566.398 254.948C569.79 261.998 572.046 269.62 573.015 277.383L539.037 307.814H445.985L409.057 272.185L412.333 265.661L413.238 263.246C414.905 258.8 416.975 254.517 419.422 250.448L419.663 250.047C421.811 246.475 424.271 243.086 427 239.935C430.435 235.969 434.302 232.378 438.513 229.247C439.161 227.609 439.936 226.021 440.829 224.503C444.193 218.784 449.154 214.172 455.104 211.233Z" fill="#EF6F2B"/>
<path d="M496.044 242.269H487.949C489.547 244.567 490.799 247.087 491.665 249.748L491.848 250.31L492.342 248.859C493.161 246.454 494.416 244.22 496.044 242.269Z" fill="#A43A1A"/>
<path d="M457.86 227.012L458.656 225.24L456.883 227.108C455.472 228.595 454.824 230.647 455.124 232.674C455.391 234.479 456.386 236.096 457.877 237.147L460.239 238.813C461.922 240 463.856 240.783 465.891 241.103L473.329 242.269L479.116 243.719C483.086 244.714 486.878 246.316 490.359 248.469C488.808 245.889 486.356 243.976 483.477 243.097L477.661 241.321L467.311 238.128C465.967 237.713 464.677 237.142 463.467 236.426L460.242 234.517C459.209 233.906 458.387 232.994 457.884 231.904C457.17 230.353 457.161 228.569 457.86 227.012Z" fill="#A43A1A"/>
<path d="M499.022 242.936L498.132 243.402C495.917 244.563 494.272 246.58 493.581 248.983L494.449 248.096C495.506 247.015 496.722 246.102 498.054 245.387C499.2 244.773 500.421 244.311 501.687 244.014L509.121 242.269L518.204 240.995C519.982 240.746 521.69 240.139 523.226 239.21L523.552 239.013C524.199 238.622 524.799 238.158 525.341 237.631L525.903 237.085C526.964 236.053 527.69 234.725 527.987 233.275C528.404 231.243 527.947 229.13 526.728 227.452L525.121 225.24L525.995 227.944C526.151 228.43 526.231 228.938 526.231 229.449C526.231 230.868 525.616 232.217 524.544 233.148L522.469 234.949C521.431 235.85 520.232 236.547 518.936 237.003L511.747 239.535L501.692 241.935C500.764 242.157 499.867 242.493 499.022 242.936Z" fill="#A43A1A"/>
<path d="M441.919 235.307L438.54 229.247L435.21 231.521L439.092 236.993C440.289 238.68 441.695 240.21 443.276 241.546C446.524 244.291 450.43 246.147 454.61 246.932L462.798 248.469L466.923 249.19C471.167 249.932 475.267 251.342 479.069 253.369C475.294 250.484 470.903 248.511 466.239 247.604L460.388 246.465L455.957 245.567C452.386 244.843 449.068 243.194 446.334 240.784C444.562 239.222 443.069 237.37 441.919 235.307Z" fill="#A43A1A"/>
<path d="M506.234 252.58L504.816 253.369C510.65 250.892 516.818 249.291 523.12 248.619L524.526 248.469L530.753 247.113C534.888 246.213 538.673 244.135 541.652 241.13C542.704 240.069 543.644 238.903 544.459 237.651L548.621 231.25L546.266 229.192L542.394 234.824C540.439 238.594 537.365 241.666 533.593 243.619L532.749 244.056C530.601 245.168 528.294 245.943 525.909 246.353L521.942 247.036C516.43 247.984 511.119 249.859 506.234 252.58Z" fill="#A43A1A"/>
<path d="M454.034 289.529L453.647 289.025C454.886 294.759 454.498 300.725 452.529 306.25L452 307.733L463.637 307.706C461.487 301.148 458.24 295.001 454.034 289.529Z" fill="#A43A1A"/>
<path d="M518.94 305.388L518.5 307.706L530.184 307.733C529.161 303.228 528.811 298.595 529.146 293.987L529.507 289.025C523.987 292.894 520.195 298.765 518.94 305.388Z" fill="#A43A1A"/>
<path d="M437.895 271.734L439.728 272.465L441.736 273.303L444.826 274.473C446.331 275.044 447.712 275.897 448.896 276.987C449.85 277.865 450.662 278.886 451.305 280.013L452.217 281.614C453.507 283.876 454.426 286.329 454.942 288.88L455.192 290.118L455.533 292.609C455.726 294.022 455.743 295.454 455.584 296.872C455.468 297.908 455.258 298.932 454.957 299.931L454.27 302.208C453.538 304.639 452.593 307 451.448 309.266L439.131 333.638C438.407 335.071 437.462 336.382 436.332 337.522L435.298 338.566C434.473 339.399 433.482 340.05 432.39 340.477C431.027 341.011 429.531 341.177 428.083 340.965C427.352 340.857 426.629 340.654 425.95 340.362L424.382 339.688L422.039 344.835L419.874 348.337L417.923 350.96C417.207 351.922 416.223 352.651 415.094 353.055L414.678 353.203C413.271 353.706 411.715 353.569 410.418 352.827C409.636 352.379 408.986 351.733 408.533 350.954L407.63 349.398L406.733 350.581C405.962 351.596 404.832 352.278 403.574 352.485C402.773 352.618 401.952 352.552 401.181 352.294L400.897 352.199C399.648 351.781 398.582 350.942 397.88 349.827C397.389 349.045 397.095 348.156 397.023 347.235L397.008 347.04C396.945 346.226 397.035 345.408 397.275 344.628L397.572 343.66L396.305 343.224C395.138 342.822 394.11 342.097 393.339 341.133C392.779 340.432 392.369 339.623 392.137 338.756L392.083 338.556C391.844 337.665 391.771 336.738 391.869 335.821L391.917 335.37C391.993 334.654 392.146 333.948 392.375 333.265L403.328 300.546L404.369 295.641C404.576 294.663 404.508 293.646 404.171 292.704C403.956 292.101 403.635 291.542 403.224 291.052L402.513 290.204L401.276 291.151C400.315 291.887 399.274 292.511 398.171 293.01C397.144 293.476 396.07 293.83 394.967 294.068L394.392 294.192C393.247 294.439 392.084 294.591 390.914 294.647L388.47 294.765C387.27 294.822 386.07 294.657 384.931 294.278L384.063 293.989C383.049 293.652 382.138 293.06 381.419 292.269L380.984 291.791C380.476 291.232 380.136 290.539 380.004 289.795C379.876 289.066 379.952 288.315 380.225 287.627L380.626 286.614C381.101 285.415 381.864 284.352 382.847 283.518L383.707 282.789C384.558 282.068 385.503 281.465 386.515 280.997L387.479 280.552C389.066 279.819 390.742 279.295 392.465 278.995L394.459 278.646C396.765 278.244 398.957 277.348 400.886 276.02L404.039 273.888C405.927 272.611 407.968 271.576 410.115 270.809C411.575 270.287 413.077 269.891 414.605 269.625L415.756 269.425C420.37 268.623 425.099 268.623 429.713 269.422C432.511 269.906 435.258 270.682 437.895 271.734Z" fill="#C4745C"/>
<path d="M434.122 273.366L428.027 269.124L428.555 269.185C430.698 269.432 432.766 270.119 434.631 271.204L435.245 271.561C437.086 272.631 438.631 274.143 439.742 275.96C441.002 278.021 441.656 280.396 441.626 282.811L441.622 283.187L441.611 283.156C440.954 281.317 440.033 279.583 438.879 278.008C437.56 276.209 435.953 274.64 434.122 273.366Z" fill="#7C483A"/>
<path d="M405.445 289.053L402.39 290.146L403.185 290.997C404.028 291.9 404.5 293.088 404.505 294.323C404.508 294.821 404.434 295.317 404.287 295.793L397.167 318.839L409.394 295.819C409.869 294.925 410.058 293.906 409.935 292.901L409.793 291.737C409.626 290.37 408.621 289.255 407.28 288.946C406.671 288.806 406.034 288.843 405.445 289.053Z" fill="#7C483A"/>
<path d="M412.46 311.336L397.204 343.486L413.669 311.616C413.754 311.452 413.886 311.317 414.048 311.228C414.232 311.127 414.445 311.091 414.652 311.127L415.392 311.254L411.744 309.396L412.353 310.222C412.442 310.343 412.505 310.481 412.538 310.627C412.592 310.865 412.565 311.115 412.46 311.336Z" fill="#7C483A"/>
<path d="M422.997 316.275L407.461 350.351L421.807 315.78C421.941 315.457 421.996 315.107 421.969 314.759C421.935 314.328 421.775 313.917 421.51 313.576L420.831 312.702L425.742 313.956L425.38 314.085C424.571 314.374 423.871 314.907 423.377 315.611C423.23 315.82 423.103 316.042 422.997 316.275Z" fill="#7C483A"/>
<path d="M433.649 317.376L424.605 339.812L432.935 316.988C433.032 316.722 433.071 316.439 433.049 316.157C433.016 315.726 432.843 315.318 432.555 314.995L431.932 314.293L436.248 315.453L435.296 315.794C434.753 315.988 434.284 316.345 433.953 316.817C433.831 316.991 433.729 317.179 433.649 317.376Z" fill="#7C483A"/>
<path d="M545.333 272.114L543.46 272.735L541.406 273.451L538.251 274.435C536.715 274.915 535.285 275.684 534.039 276.701C533.034 277.522 532.162 278.492 531.454 279.578L530.447 281.122C529.025 283.303 527.961 285.696 527.293 288.213L526.97 289.433L526.481 291.9C526.204 293.299 526.102 294.727 526.176 296.152C526.23 297.194 526.379 298.228 526.62 299.243L527.169 301.557C527.755 304.027 528.557 306.441 529.565 308.771L540.405 333.834C541.043 335.308 541.907 336.673 542.968 337.879L543.938 338.982C544.712 339.863 545.662 340.572 546.726 341.064C548.055 341.678 549.538 341.933 550.996 341.807C551.733 341.744 552.466 341.584 553.162 341.333L554.767 340.753L556.798 346.031L558.751 349.656L560.542 352.392C561.199 353.395 562.138 354.181 563.241 354.651L563.647 354.824C565.021 355.41 566.584 355.366 567.923 354.702C568.73 354.302 569.417 353.697 569.915 352.946L570.909 351.446L571.735 352.681C572.443 353.74 573.531 354.488 574.774 354.77C575.566 354.95 576.39 354.933 577.174 354.722L577.463 354.644C578.736 354.301 579.85 353.528 580.616 352.456C581.153 351.705 581.5 350.835 581.627 349.92L581.654 349.726C581.765 348.918 581.724 348.095 581.531 347.302L581.292 346.319L582.583 345.959C583.771 345.628 584.842 344.965 585.668 344.049C586.27 343.383 586.727 342.599 587.01 341.748L587.076 341.551C587.368 340.676 587.496 339.755 587.453 338.834L587.432 338.381C587.399 337.662 587.288 336.948 587.1 336.252L578.12 302.938L577.373 297.98C577.224 296.991 577.353 295.98 577.746 295.059C577.997 294.471 578.35 293.932 578.79 293.467L579.551 292.663L580.729 293.683C581.644 294.475 582.646 295.159 583.717 295.724C584.714 296.249 585.765 296.667 586.852 296.97L587.419 297.128C588.547 297.443 589.699 297.665 590.863 297.79L593.296 298.054C594.49 298.183 595.698 298.09 596.858 297.779L597.741 297.543C598.774 297.267 599.718 296.729 600.483 295.983L600.946 295.532C601.487 295.004 601.867 294.333 602.043 293.598C602.215 292.878 602.184 292.124 601.952 291.421L601.612 290.385C601.21 289.161 600.512 288.054 599.58 287.163L598.765 286.384C597.959 285.613 597.052 284.955 596.069 284.427L595.133 283.925C593.592 283.099 591.951 282.476 590.249 282.073L588.279 281.607C586.001 281.067 583.867 280.042 582.021 278.602L579.001 276.285C577.192 274.897 575.216 273.743 573.119 272.849C571.693 272.241 570.217 271.756 568.708 271.4L567.571 271.131C563.013 270.055 558.292 269.773 553.638 270.295C550.817 270.611 548.029 271.222 545.333 272.114Z" fill="#C4745C"/>
<path d="M549.002 273.969L555.339 270.098L554.809 270.127C552.655 270.246 550.549 270.809 548.623 271.78L547.989 272.1C546.088 273.059 544.455 274.476 543.237 276.223C541.856 278.205 541.063 280.536 540.947 282.949L540.93 283.324L540.942 283.294C541.708 281.498 542.73 279.822 543.977 278.318C545.401 276.601 547.099 275.132 549.002 273.969Z" fill="#7C483A"/>
<path d="M576.692 291.34L579.676 292.612L578.832 293.415C577.936 294.266 577.395 295.423 577.315 296.656C577.283 297.153 577.327 297.652 577.446 298.136L583.178 321.566L572.347 297.857C571.926 296.936 571.798 295.908 571.981 294.912L572.192 293.759C572.44 292.405 573.509 291.351 574.867 291.123C575.483 291.019 576.116 291.094 576.692 291.34Z" fill="#7C483A"/>
<path d="M568.36 313.164L581.67 346.166L567.136 313.371C567.061 313.202 566.938 313.06 566.781 312.961C566.603 312.849 566.393 312.801 566.184 312.824L565.438 312.907L569.19 311.27L568.533 312.059C568.437 312.174 568.366 312.307 568.324 312.451C568.256 312.686 568.269 312.937 568.36 313.164Z" fill="#7C483A"/>
<path d="M557.547 317.465L571.021 352.408L558.764 317.043C558.65 316.712 558.615 316.359 558.663 316.013C558.723 315.585 558.907 315.184 559.192 314.86L559.922 314.028L554.945 314.986L555.298 315.137C556.089 315.474 556.756 316.048 557.207 316.779C557.341 316.997 557.455 317.227 557.547 317.465Z" fill="#7C483A"/>
<path d="M546.848 317.928L554.537 340.864L547.584 317.584C547.503 317.313 547.481 317.028 547.519 316.748C547.578 316.32 547.776 315.923 548.082 315.617L548.746 314.954L544.368 315.854L545.299 316.251C545.829 316.477 546.276 316.862 546.578 317.353C546.69 317.534 546.78 317.727 546.848 317.928Z" fill="#7C483A"/>
<path d="M471.955 230.696L471.809 230.246C471.493 229.274 471.457 228.234 471.705 227.243L482.477 228.775C492.205 230.159 502.109 229.639 511.639 227.243C512.074 228.549 512.001 229.97 511.434 231.224L511.36 231.388C510.905 232.395 510.178 233.255 509.261 233.87L506.72 235.575C505.297 236.531 503.735 237.26 502.089 237.739L497.966 238.939L494.76 240.239C493.578 240.718 492.538 241.491 491.74 242.486C490.848 241.486 489.751 240.691 488.524 240.153L485.756 238.939L478.821 236.663C477.729 236.305 476.698 235.785 475.761 235.119L474.593 234.288C473.35 233.405 472.426 232.146 471.955 230.696Z" fill="#7C483A"/>
<path d="M454.486 159.839V169.928L453.806 169.268C453.062 168.546 452.065 168.141 451.027 168.141C449.934 168.141 448.889 168.59 448.135 169.382L447.955 169.571C447.142 170.426 446.689 171.561 446.689 172.741V176.783C446.689 177.392 446.626 177.998 446.501 178.594L446.381 179.171C446.029 180.847 445.978 182.573 446.228 184.267L446.432 185.649C446.602 186.805 446.928 187.933 447.399 189.002C448.637 191.808 450.825 194.088 453.578 195.44L455.271 196.271V198.063C455.271 199.713 455.479 201.357 455.89 202.956C456.306 204.575 456.927 206.135 457.738 207.597L461.336 214.085L466.209 221.341L469.86 225.688C471.764 227.957 474.04 229.939 476.542 231.524C479.754 233.559 483.385 234.955 487.136 235.577L487.612 235.656C490.769 236.179 493.997 236.112 497.129 235.456C499.729 234.911 502.23 233.969 504.543 232.662L505.216 232.282C508.916 230.191 512.144 227.357 514.696 223.958L517.189 220.637L521.629 214.681L522.334 213.407C525.261 208.124 527.049 202.287 527.585 196.271C528.776 196.271 529.948 195.977 530.998 195.414L531.352 195.224C532.783 194.457 533.976 193.309 534.797 191.907L535.237 191.155C536.307 189.328 536.871 187.249 536.871 185.132V179.214V173.015C536.871 171.166 535.702 169.52 533.957 168.91C532.581 168.43 531.057 168.671 529.896 169.551L529.399 169.928L527.585 152.709C527.05 148.659 525.652 144.771 523.486 141.308L522.124 139.132C518.898 133.973 514.296 129.818 508.836 127.133C503.735 124.626 498.069 123.492 492.397 123.844L487.085 124.173C481.622 124.511 476.319 126.152 471.619 128.959C465.226 132.776 460.249 138.57 457.439 145.465L457.177 146.107C455.4 150.467 454.486 155.131 454.486 159.839Z" fill="#C4745C"/>
<path d="M452.742 163.025L454.73 172.798L457.254 157.31C458.176 151.651 461.093 146.509 465.477 142.815L465.741 142.592C471.894 137.408 479.502 134.258 487.519 133.575C496.033 132.851 504.55 134.949 511.754 139.545L513.668 140.767C520.059 144.845 524.473 151.39 525.858 158.843L528.451 172.798L530.975 162.841C531.938 159.04 532.227 155.099 531.828 151.199C530.713 140.304 524.344 130.642 514.772 125.322L512.562 124.094C506.627 120.796 499.923 119.133 493.135 119.274L489.298 119.354C482.87 119.488 476.579 121.239 471.006 124.446L469.855 125.109C460.315 130.598 453.854 140.196 452.358 151.1C451.813 155.068 451.943 159.1 452.742 163.025Z" fill="#1A0607"/>
<path d="M464.288 158.12L463.366 159.234L466.315 156.781C466.82 156.36 467.373 156.001 467.963 155.711C468.507 155.443 469.078 155.236 469.666 155.092L474.223 153.982L480.087 152.619C480.291 152.571 480.485 152.488 480.661 152.373L480.889 152.223C481.177 152.033 481.369 151.727 481.413 151.385C481.438 151.188 481.414 150.988 481.342 150.803L481.295 150.684C481.12 150.235 480.752 149.89 480.293 149.744C479.989 149.647 479.664 149.644 479.358 149.734L476.984 150.435L469.783 153.494C467.688 154.694 465.827 156.261 464.288 158.12Z" fill="#1A0607"/>
<path d="M502.301 146.433L502.294 146.483C502.244 146.832 502.318 147.19 502.503 147.491C502.702 147.817 503.016 148.057 503.383 148.163L505.628 148.811L511.314 150.11L513.412 150.631C514.695 150.95 515.92 151.467 517.043 152.163C517.716 152.58 518.349 153.06 518.933 153.595L520.004 154.577L519.082 153.347C518.669 152.797 518.208 152.284 517.704 151.815C516.913 151.079 516.023 150.457 515.061 149.968L510.339 147.565L504.551 145.363C504.333 145.28 504.101 145.237 503.867 145.237H503.68C503.364 145.237 503.057 145.345 502.81 145.542C502.533 145.763 502.352 146.082 502.301 146.433Z" fill="#1A0607"/>
<path d="M467.268 169.666L463.61 170.984L463.854 171.553L466.723 170.551L469.295 169.82L472.517 169.251V170.589C472.517 171.064 472.609 171.536 472.787 171.977C472.949 172.377 473.179 172.745 473.468 173.066L473.732 173.359C474.234 173.917 474.852 174.357 475.543 174.648L475.644 174.691C476.364 174.994 477.148 175.113 477.925 175.035C478.745 174.953 479.529 174.655 480.198 174.172L480.225 174.152C480.695 173.812 481.096 173.385 481.406 172.894C481.826 172.228 482.066 171.464 482.102 170.677L482.128 170.091L486.568 171.688L486.975 170.984L482.399 169.441L480.888 169.124C478.887 168.705 476.847 168.493 474.802 168.493H473.979C472.88 168.493 471.783 168.585 470.7 168.767C469.531 168.963 468.383 169.264 467.268 169.666Z" fill="#1A0607"/>
<path d="M516.346 169.666L520.004 170.984L519.761 171.553L516.891 170.551L514.319 169.82L511.097 169.251V170.589C511.097 171.064 511.006 171.536 510.827 171.977C510.665 172.377 510.435 172.745 510.146 173.066L509.883 173.359C509.381 173.917 508.763 174.357 508.072 174.648L507.97 174.691C507.251 174.994 506.467 175.113 505.69 175.035C504.869 174.953 504.085 174.655 503.417 174.172L503.389 174.152C502.919 173.812 502.518 173.385 502.209 172.894C501.788 172.228 501.548 171.464 501.513 170.677L501.486 170.091L497.046 171.688L496.64 170.984L501.215 169.441L502.727 169.124C504.728 168.705 506.767 168.493 508.812 168.493H509.636C510.734 168.493 511.831 168.585 512.915 168.767C514.083 168.963 515.232 169.264 516.346 169.666Z" fill="#1A0607"/>
<circle cx="506.17" cy="171.119" r="1.67857" fill="black"/>
<circle cx="477.255" cy="171.119" r="1.67857" fill="black"/>
<circle cx="475.549" cy="171.092" r="0.89343" fill="#C4C4C4"/>
<circle cx="504.464" cy="171.092" r="0.89343" fill="#C4C4C4"/>
<path d="M485.979 188.218L486.758 188.257L487.047 188.471C487.61 188.886 488.226 189.223 488.879 189.474C489.768 189.815 490.712 189.99 491.664 189.99H491.958C492.675 189.99 493.387 189.88 494.07 189.666C494.644 189.485 495.192 189.232 495.701 188.913L496.532 188.392H497.163C497.337 188.392 497.51 188.368 497.677 188.32L498.002 188.227C498.24 188.159 498.445 188.005 498.575 187.794L498.601 187.753C498.682 187.622 498.725 187.472 498.725 187.318C498.725 187.042 498.587 186.784 498.357 186.631L498.243 186.555C498.132 186.481 498.008 186.428 497.878 186.399L497.1 186.226L497.03 186.419C496.809 187.022 496.451 187.566 495.984 188.007C495.808 188.173 495.618 188.324 495.416 188.457L495.331 188.512C494.906 188.792 494.444 189.009 493.957 189.156L493.874 189.182C493.409 189.323 492.929 189.406 492.444 189.429L492.239 189.439C491.745 189.463 491.25 189.439 490.76 189.366L490.031 189.257C489.673 189.204 489.322 189.111 488.985 188.98L488.836 188.921C488.217 188.68 487.666 188.296 487.226 187.799C486.846 187.369 486.558 186.865 486.382 186.319L486.352 186.226L485.899 186.305C485.786 186.325 485.675 186.355 485.568 186.397L485.268 186.512C485.11 186.573 484.976 186.682 484.886 186.825C484.737 187.058 484.722 187.353 484.846 187.6L484.851 187.61C484.929 187.766 485.056 187.893 485.212 187.971L485.403 188.067C485.582 188.157 485.778 188.208 485.979 188.218Z" fill="#1A0607"/>
<path d="M466.454 199.146L468.537 197.462L467.861 198.897L467.311 200.327C467.139 200.774 467.083 201.258 467.15 201.733C467.258 202.498 467.675 203.185 468.304 203.634L468.797 203.986C469.074 204.185 469.374 204.348 469.691 204.474L472.46 205.577C474.37 206.338 476.356 206.892 478.384 207.23L483.942 208.156L491.685 208.562C496.063 208.292 500.41 207.646 504.677 206.631L506.007 206.315L511.649 204.096C512.201 203.879 512.736 203.621 513.249 203.325L514.881 202.381C515.243 202.172 515.556 201.89 515.802 201.553L515.905 201.412C516.212 200.992 516.377 200.485 516.377 199.965C516.377 199.284 516.094 198.633 515.596 198.169L513.94 196.623L515.07 196.892C516.193 197.159 517.229 197.709 518.08 198.489L518.24 198.635C518.779 199.13 519.218 199.724 519.532 200.386C519.879 201.117 520.065 201.915 520.078 202.725L520.087 203.239C520.104 204.302 519.887 205.356 519.451 206.326C518.944 207.455 518.156 208.436 517.162 209.174L516.783 209.456L517.649 207.533L518.116 206.133C518.183 205.931 518.218 205.719 518.218 205.506V205.452C518.218 204.489 517.505 203.676 516.551 203.549C516.173 203.499 515.788 203.563 515.446 203.733L512.478 205.205L510.082 206.148C506.008 207.752 501.761 208.877 497.426 209.501L497.143 209.542C494.663 209.899 492.16 210.078 489.655 210.078L479.665 209.077L475.382 208.077C474.143 207.787 472.934 207.381 471.771 206.864L468.167 205.26C467.965 205.17 467.746 205.124 467.526 205.124H467.446C467.187 205.124 466.933 205.201 466.718 205.344C466.238 205.664 466.023 206.259 466.188 206.811L466.523 207.937C466.566 208.083 466.621 208.225 466.687 208.363L467.509 210.078L465.449 207.985C464.641 207.164 464.118 206.106 463.957 204.966C463.819 203.989 463.951 202.993 464.341 202.087L464.493 201.733C464.927 200.724 465.6 199.836 466.454 199.146Z" fill="#7C483A"/>
<path d="M477.066 197.652L475.648 198.266C472.935 199.442 470.337 200.868 467.888 202.525L468.131 203.039C469.213 202.282 470.351 201.61 471.535 201.027L474.71 199.465L480.125 197.652L484.89 196.487L486.349 197.449C487.017 197.89 487.731 198.256 488.478 198.541L488.978 198.731C489.642 198.985 490.34 199.14 491.049 199.192C491.562 199.23 492.078 199.213 492.587 199.143L492.72 199.125C493.807 198.974 494.855 198.616 495.808 198.071L496.06 197.926C496.661 197.582 497.226 197.176 497.744 196.715L498.183 196.325L501.919 197.002L507.307 198.355L509.803 199.128C511.399 199.622 512.926 200.317 514.346 201.198L514.752 200.711C513.906 200.153 513.007 199.678 512.069 199.293L508.2 197.706L500.674 195.756L497.804 195.134L497.134 195.792C496.555 196.361 495.894 196.839 495.173 197.211L494.932 197.336C494.147 197.741 493.29 197.988 492.41 198.062C492.018 198.095 491.624 198.094 491.232 198.058L491.197 198.055C490.427 197.985 489.673 197.79 488.965 197.479L488.36 197.212C487.512 196.839 486.713 196.361 485.983 195.79L485.35 195.296L482.453 196L477.066 197.652Z" fill="#1A0607"/>
<path d="M469.011 208.512L467.644 206.829L470.621 209.709C473.008 212.017 475.741 213.937 478.721 215.399L479.411 215.737C481.751 216.886 484.248 217.684 486.82 218.106C490.247 218.669 493.751 218.555 497.134 217.772L497.634 217.656C500.492 216.994 503.235 215.905 505.769 214.425L506.252 214.143C508.749 212.685 511.043 210.904 513.075 208.845L516.187 205.692L513.332 209.059C511.615 211.083 509.639 212.873 507.454 214.381L507.073 214.644C504.24 216.601 501.067 218.013 497.716 218.809L497.536 218.852C494.155 219.655 490.65 219.794 487.216 219.26C483.75 218.721 480.423 217.508 477.423 215.688L476.826 215.325C473.849 213.519 471.206 211.215 469.011 208.512Z" fill="#1A0607"/>
<path d="M464.983 168.837L464.395 170.659L463.556 170.984L463.662 170.237C463.859 168.843 464.396 167.52 465.227 166.383C466.084 165.21 467.226 164.274 468.544 163.664L469.317 163.306C470.38 162.814 471.51 162.482 472.67 162.322L476.389 161.806L472.352 162.785C471.401 163.016 470.481 163.362 469.614 163.816L468.896 164.192C467.945 164.69 467.103 165.374 466.421 166.204C465.78 166.983 465.292 167.876 464.983 168.837Z" fill="#7C483A"/>
<path d="M518.605 168.837L519.192 170.659L520.031 170.984L519.926 170.237C519.729 168.843 519.191 167.52 518.36 166.383C517.503 165.21 516.362 164.274 515.043 163.664L514.271 163.306C513.208 162.814 512.078 162.482 510.917 162.322L507.199 161.806L511.235 162.785C512.186 163.016 513.106 163.362 513.973 163.816L514.691 164.192C515.643 164.69 516.484 165.374 517.166 166.204C517.807 166.983 518.295 167.876 518.605 168.837Z" fill="#7C483A"/>
<path d="M488.174 179.506L488.626 178.131L488.485 178.98C488.381 179.603 488.197 180.21 487.937 180.785L487.802 181.083C487.648 181.424 487.453 181.746 487.221 182.04C486.792 182.586 486.244 183.028 485.62 183.333L485.296 183.492L484.756 183.746C484.247 183.984 483.838 184.392 483.598 184.9L483.545 185.013C483.363 185.397 483.307 185.829 483.384 186.247C483.431 186.502 483.526 186.745 483.665 186.964L483.737 187.078C484.096 187.645 484.659 188.063 485.305 188.246C485.706 188.359 486.132 188.382 486.542 188.309L486.839 188.257L487.164 188.582L486.797 188.68C486.502 188.759 486.197 188.798 485.891 188.798H485.64C485.271 188.798 484.907 188.714 484.576 188.553C484.179 188.359 483.843 188.061 483.603 187.691L483.449 187.454C483.17 187.024 483.022 186.522 483.022 186.01C483.022 185.497 483.17 184.996 483.449 184.566L483.496 184.493C483.805 184.016 484.245 183.639 484.763 183.406L485.296 183.167L485.489 183.056C485.953 182.789 486.374 182.453 486.737 182.059C487.021 181.752 487.267 181.412 487.471 181.047L487.599 180.817C487.832 180.399 488.024 179.96 488.174 179.506Z" fill="#7C483A"/>
<path d="M495.359 179.506L494.907 178.131L495.049 178.98C495.152 179.603 495.337 180.21 495.596 180.785L495.731 181.083C495.885 181.424 496.08 181.746 496.312 182.04C496.742 182.586 497.289 183.028 497.913 183.333L498.237 183.492L498.778 183.746C499.286 183.984 499.695 184.392 499.935 184.9L499.988 185.013C500.17 185.397 500.226 185.829 500.149 186.247C500.102 186.502 500.007 186.745 499.869 186.964L499.796 187.078C499.437 187.645 498.874 188.063 498.228 188.246C497.827 188.359 497.401 188.382 496.991 188.309L496.694 188.257L496.369 188.582L496.736 188.68C497.032 188.759 497.336 188.798 497.642 188.798H497.893C498.262 188.798 498.626 188.714 498.958 188.553C499.354 188.359 499.691 188.061 499.931 187.691L500.084 187.454C500.363 187.024 500.511 186.522 500.511 186.01C500.511 185.497 500.363 184.996 500.084 184.566L500.037 184.493C499.728 184.016 499.288 183.639 498.77 183.406L498.237 183.167L498.044 183.056C497.58 182.789 497.159 182.453 496.796 182.059C496.512 181.752 496.266 181.412 496.063 181.047L495.934 180.817C495.701 180.399 495.509 179.96 495.359 179.506Z" fill="#7C483A"/>
<path d="M180.73 205.358C179.677 205.358 178.727 205.175 177.88 204.808C177.04 204.442 176.347 203.918 175.8 203.238C175.26 202.552 174.917 201.738 174.77 200.798L177.27 200.418C177.483 201.272 177.92 201.932 178.58 202.398C179.247 202.865 180.013 203.098 180.88 203.098C181.393 203.098 181.877 203.018 182.33 202.858C182.783 202.698 183.15 202.465 183.43 202.158C183.717 201.852 183.86 201.475 183.86 201.028C183.86 200.828 183.827 200.645 183.76 200.478C183.693 200.305 183.593 200.152 183.46 200.018C183.333 199.885 183.167 199.765 182.96 199.658C182.76 199.545 182.527 199.448 182.26 199.368L178.54 198.268C178.22 198.175 177.873 198.052 177.5 197.898C177.133 197.738 176.783 197.522 176.45 197.248C176.123 196.968 175.853 196.615 175.64 196.188C175.433 195.755 175.33 195.222 175.33 194.588C175.33 193.662 175.563 192.885 176.03 192.258C176.503 191.625 177.137 191.152 177.93 190.838C178.73 190.525 179.617 190.372 180.59 190.378C181.577 190.385 182.457 190.555 183.23 190.888C184.003 191.215 184.65 191.692 185.17 192.318C185.69 192.945 186.057 193.702 186.27 194.588L183.68 195.038C183.573 194.532 183.367 194.102 183.06 193.748C182.76 193.388 182.39 193.115 181.95 192.928C181.517 192.742 181.053 192.642 180.56 192.628C180.08 192.622 179.633 192.695 179.22 192.848C178.813 192.995 178.483 193.208 178.23 193.488C177.983 193.768 177.86 194.095 177.86 194.468C177.86 194.822 177.967 195.112 178.18 195.338C178.393 195.558 178.657 195.735 178.97 195.868C179.29 195.995 179.613 196.102 179.94 196.188L182.52 196.908C182.873 197.002 183.27 197.128 183.71 197.288C184.15 197.448 184.573 197.672 184.98 197.958C185.387 198.245 185.72 198.622 185.98 199.088C186.247 199.555 186.38 200.148 186.38 200.868C186.38 201.615 186.223 202.272 185.91 202.838C185.603 203.398 185.187 203.865 184.66 204.238C184.133 204.612 183.53 204.892 182.85 205.078C182.177 205.265 181.47 205.358 180.73 205.358ZM193.055 205.358C191.961 205.358 191.001 205.122 190.175 204.648C189.348 204.175 188.701 203.518 188.235 202.678C187.775 201.838 187.545 200.872 187.545 199.778C187.545 198.598 187.771 197.575 188.225 196.708C188.678 195.835 189.308 195.158 190.115 194.678C190.921 194.198 191.855 193.958 192.915 193.958C194.035 193.958 194.985 194.222 195.765 194.748C196.551 195.268 197.135 196.005 197.515 196.958C197.895 197.912 198.038 199.035 197.945 200.328H195.555V199.448C195.548 198.275 195.341 197.418 194.935 196.878C194.528 196.338 193.888 196.068 193.015 196.068C192.028 196.068 191.295 196.375 190.815 196.988C190.335 197.595 190.095 198.485 190.095 199.658C190.095 200.752 190.335 201.598 190.815 202.198C191.295 202.798 191.995 203.098 192.915 203.098C193.508 203.098 194.018 202.968 194.445 202.708C194.878 202.442 195.211 202.058 195.445 201.558L197.825 202.278C197.411 203.252 196.771 204.008 195.905 204.548C195.045 205.088 194.095 205.358 193.055 205.358ZM189.335 200.328V198.508H196.765V200.328H189.335ZM203.826 205.368C203.026 205.368 202.366 205.235 201.846 204.968C201.326 204.702 200.912 204.362 200.606 203.948C200.299 203.535 200.072 203.095 199.926 202.628C199.779 202.162 199.682 201.722 199.636 201.308C199.596 200.888 199.576 200.548 199.576 200.288V194.258H202.016V199.458C202.016 199.792 202.039 200.168 202.086 200.588C202.132 201.002 202.239 201.402 202.406 201.788C202.579 202.168 202.832 202.482 203.166 202.728C203.506 202.975 203.962 203.098 204.536 203.098C204.842 203.098 205.146 203.048 205.446 202.948C205.746 202.848 206.016 202.678 206.256 202.438C206.502 202.192 206.699 201.855 206.846 201.428C206.992 201.002 207.066 200.462 207.066 199.808L208.496 200.418C208.496 201.338 208.316 202.172 207.956 202.918C207.602 203.665 207.079 204.262 206.386 204.708C205.692 205.148 204.839 205.368 203.826 205.368ZM207.356 205.058V201.708H207.066V194.258H209.486V205.058H207.356ZM228.469 205.058V198.498C228.469 197.758 228.286 197.182 227.919 196.768C227.553 196.348 227.056 196.138 226.429 196.138C226.043 196.138 225.696 196.228 225.389 196.408C225.083 196.582 224.839 196.842 224.659 197.188C224.479 197.528 224.389 197.935 224.389 198.408L223.319 197.778C223.313 197.032 223.479 196.375 223.819 195.808C224.166 195.235 224.633 194.788 225.219 194.468C225.806 194.148 226.459 193.988 227.179 193.988C228.373 193.988 229.286 194.348 229.919 195.068C230.559 195.782 230.879 196.722 230.879 197.888V205.058H228.469ZM215.479 205.058V194.258H217.609V197.608H217.909V205.058H215.479ZM221.989 205.058V198.528C221.989 197.775 221.806 197.188 221.439 196.768C221.073 196.348 220.573 196.138 219.939 196.138C219.326 196.138 218.833 196.348 218.459 196.768C218.093 197.188 217.909 197.735 217.909 198.408L216.829 197.688C216.829 196.988 217.003 196.358 217.349 195.798C217.696 195.238 218.163 194.798 218.749 194.478C219.343 194.152 220.006 193.988 220.739 193.988C221.546 193.988 222.219 194.162 222.759 194.508C223.306 194.848 223.713 195.315 223.979 195.908C224.253 196.495 224.389 197.158 224.389 197.898V205.058H221.989ZM237.138 205.368C236.338 205.368 235.678 205.235 235.158 204.968C234.638 204.702 234.224 204.362 233.918 203.948C233.611 203.535 233.384 203.095 233.238 202.628C233.091 202.162 232.994 201.722 232.948 201.308C232.908 200.888 232.888 200.548 232.888 200.288V194.258H235.328V199.458C235.328 199.792 235.351 200.168 235.398 200.588C235.444 201.002 235.551 201.402 235.718 201.788C235.891 202.168 236.144 202.482 236.478 202.728C236.818 202.975 237.274 203.098 237.848 203.098C238.154 203.098 238.458 203.048 238.758 202.948C239.058 202.848 239.328 202.678 239.568 202.438C239.814 202.192 240.011 201.855 240.158 201.428C240.304 201.002 240.378 200.462 240.378 199.808L241.808 200.418C241.808 201.338 241.628 202.172 241.268 202.918C240.914 203.665 240.391 204.262 239.698 204.708C239.004 205.148 238.151 205.368 237.138 205.368ZM240.668 205.058V201.708H240.378V194.258H242.798V205.058H240.668ZM252.677 205.058V199.858C252.677 199.518 252.654 199.142 252.607 198.728C252.56 198.315 252.45 197.918 252.277 197.538C252.11 197.152 251.857 196.835 251.517 196.588C251.184 196.342 250.73 196.218 250.157 196.218C249.85 196.218 249.547 196.268 249.247 196.368C248.947 196.468 248.674 196.642 248.427 196.888C248.187 197.128 247.994 197.462 247.847 197.888C247.7 198.308 247.627 198.848 247.627 199.508L246.197 198.898C246.197 197.978 246.374 197.145 246.727 196.398C247.087 195.652 247.614 195.058 248.307 194.618C249 194.172 249.854 193.948 250.867 193.948C251.667 193.948 252.327 194.082 252.847 194.348C253.367 194.615 253.78 194.955 254.087 195.368C254.394 195.782 254.62 196.222 254.767 196.688C254.914 197.155 255.007 197.598 255.047 198.018C255.094 198.432 255.117 198.768 255.117 199.028V205.058H252.677ZM245.187 205.058V194.258H247.337V197.608H247.627V205.058H245.187ZM261.481 205.358C260.487 205.358 259.621 205.108 258.881 204.608C258.141 204.108 257.567 203.428 257.161 202.568C256.754 201.708 256.551 200.738 256.551 199.658C256.551 198.565 256.754 197.592 257.161 196.738C257.574 195.878 258.157 195.202 258.911 194.708C259.664 194.208 260.551 193.958 261.571 193.958C262.597 193.958 263.457 194.208 264.151 194.708C264.851 195.202 265.381 195.878 265.741 196.738C266.101 197.598 266.281 198.572 266.281 199.658C266.281 200.732 266.101 201.702 265.741 202.568C265.381 203.428 264.844 204.108 264.131 204.608C263.417 205.108 262.534 205.358 261.481 205.358ZM261.851 203.198C262.497 203.198 263.017 203.052 263.411 202.758C263.811 202.458 264.101 202.042 264.281 201.508C264.467 200.975 264.561 200.358 264.561 199.658C264.561 198.952 264.467 198.335 264.281 197.808C264.101 197.275 263.817 196.862 263.431 196.568C263.044 196.268 262.544 196.118 261.931 196.118C261.284 196.118 260.751 196.278 260.331 196.598C259.911 196.912 259.601 197.338 259.401 197.878C259.201 198.412 259.101 199.005 259.101 199.658C259.101 200.318 259.197 200.918 259.391 201.458C259.591 201.992 259.894 202.415 260.301 202.728C260.707 203.042 261.224 203.198 261.851 203.198ZM264.561 205.058V197.478H264.261V190.658H266.691V205.058H264.561ZM273.865 205.358C272.785 205.358 271.841 205.115 271.035 204.628C270.228 204.142 269.601 203.472 269.155 202.618C268.715 201.758 268.495 200.772 268.495 199.658C268.495 198.525 268.721 197.532 269.175 196.678C269.628 195.825 270.258 195.158 271.065 194.678C271.871 194.198 272.805 193.958 273.865 193.958C274.951 193.958 275.898 194.202 276.705 194.688C277.511 195.175 278.138 195.848 278.585 196.708C279.031 197.562 279.255 198.545 279.255 199.658C279.255 200.778 279.028 201.768 278.575 202.628C278.128 203.482 277.501 204.152 276.695 204.638C275.888 205.118 274.945 205.358 273.865 205.358ZM273.865 203.098C274.825 203.098 275.538 202.778 276.005 202.138C276.471 201.498 276.705 200.672 276.705 199.658C276.705 198.612 276.468 197.778 275.995 197.158C275.521 196.532 274.811 196.218 273.865 196.218C273.218 196.218 272.685 196.365 272.265 196.658C271.851 196.945 271.545 197.348 271.345 197.868C271.145 198.382 271.045 198.978 271.045 199.658C271.045 200.705 271.281 201.542 271.755 202.168C272.235 202.788 272.938 203.098 273.865 203.098ZM285.602 205.058V194.088C285.602 193.815 285.612 193.515 285.632 193.188C285.652 192.855 285.708 192.525 285.802 192.198C285.895 191.872 286.065 191.575 286.312 191.308C286.618 190.968 286.948 190.735 287.302 190.608C287.662 190.475 288.015 190.402 288.362 190.388C288.708 190.368 289.012 190.358 289.272 190.358H290.622V192.318H289.372C288.912 192.318 288.568 192.435 288.342 192.668C288.122 192.895 288.012 193.195 288.012 193.568V205.058H285.602ZM283.862 196.148V194.258H290.622V196.148H283.862ZM292.722 192.618V190.408H295.132V192.618H292.722ZM292.722 205.058V194.258H295.132V205.058H292.722ZM305.208 205.058V199.858C305.208 199.518 305.185 199.142 305.138 198.728C305.092 198.315 304.982 197.918 304.808 197.538C304.642 197.152 304.388 196.835 304.048 196.588C303.715 196.342 303.262 196.218 302.688 196.218C302.382 196.218 302.078 196.268 301.778 196.368C301.478 196.468 301.205 196.642 300.958 196.888C300.718 197.128 300.525 197.462 300.378 197.888C300.232 198.308 300.158 198.848 300.158 199.508L298.728 198.898C298.728 197.978 298.905 197.145 299.258 196.398C299.618 195.652 300.145 195.058 300.838 194.618C301.532 194.172 302.385 193.948 303.398 193.948C304.198 193.948 304.858 194.082 305.378 194.348C305.898 194.615 306.312 194.955 306.618 195.368C306.925 195.782 307.152 196.222 307.298 196.688C307.445 197.155 307.538 197.598 307.578 198.018C307.625 198.432 307.648 198.768 307.648 199.028V205.058H305.208ZM297.718 205.058V194.258H299.868V197.608H300.158V205.058H297.718ZM312.878 205.358C312.098 205.358 311.438 205.212 310.898 204.918C310.358 204.618 309.948 204.222 309.668 203.728C309.394 203.235 309.258 202.692 309.258 202.098C309.258 201.578 309.344 201.112 309.518 200.698C309.691 200.278 309.958 199.918 310.318 199.618C310.678 199.312 311.144 199.062 311.718 198.868C312.151 198.728 312.658 198.602 313.238 198.488C313.824 198.375 314.458 198.272 315.138 198.178C315.824 198.078 316.541 197.972 317.288 197.858L316.428 198.348C316.434 197.602 316.268 197.052 315.928 196.698C315.588 196.345 315.014 196.168 314.208 196.168C313.721 196.168 313.251 196.282 312.798 196.508C312.344 196.735 312.028 197.125 311.848 197.678L309.648 196.988C309.914 196.075 310.421 195.342 311.168 194.788C311.921 194.235 312.934 193.958 314.208 193.958C315.168 193.958 316.011 194.115 316.738 194.428C317.471 194.742 318.014 195.255 318.368 195.968C318.561 196.348 318.678 196.738 318.718 197.138C318.758 197.532 318.778 197.962 318.778 198.428V205.058H316.668V202.718L317.018 203.098C316.531 203.878 315.961 204.452 315.308 204.818C314.661 205.178 313.851 205.358 312.878 205.358ZM313.358 203.438C313.904 203.438 314.371 203.342 314.758 203.148C315.144 202.955 315.451 202.718 315.678 202.438C315.911 202.158 316.068 201.895 316.148 201.648C316.274 201.342 316.344 200.992 316.358 200.598C316.378 200.198 316.388 199.875 316.388 199.628L317.128 199.848C316.401 199.962 315.778 200.062 315.258 200.148C314.738 200.235 314.291 200.318 313.918 200.398C313.544 200.472 313.214 200.555 312.928 200.648C312.648 200.748 312.411 200.865 312.218 200.998C312.024 201.132 311.874 201.285 311.768 201.458C311.668 201.632 311.618 201.835 311.618 202.068C311.618 202.335 311.684 202.572 311.818 202.778C311.951 202.978 312.144 203.138 312.398 203.258C312.658 203.378 312.978 203.438 313.358 203.438ZM328.451 205.058V199.858C328.451 199.518 328.428 199.142 328.381 198.728C328.335 198.315 328.225 197.918 328.051 197.538C327.885 197.152 327.631 196.835 327.291 196.588C326.958 196.342 326.505 196.218 325.931 196.218C325.625 196.218 325.321 196.268 325.021 196.368C324.721 196.468 324.448 196.642 324.201 196.888C323.961 197.128 323.768 197.462 323.621 197.888C323.475 198.308 323.401 198.848 323.401 199.508L321.971 198.898C321.971 197.978 322.148 197.145 322.501 196.398C322.861 195.652 323.388 195.058 324.081 194.618C324.775 194.172 325.628 193.948 326.641 193.948C327.441 193.948 328.101 194.082 328.621 194.348C329.141 194.615 329.555 194.955 329.861 195.368C330.168 195.782 330.395 196.222 330.541 196.688C330.688 197.155 330.781 197.598 330.821 198.018C330.868 198.432 330.891 198.768 330.891 199.028V205.058H328.451ZM320.961 205.058V194.258H323.111V197.608H323.401V205.058H320.961ZM337.615 205.358C336.502 205.358 335.552 205.112 334.765 204.618C333.978 204.118 333.375 203.438 332.955 202.578C332.542 201.718 332.332 200.745 332.325 199.658C332.332 198.552 332.548 197.572 332.975 196.718C333.408 195.858 334.022 195.185 334.815 194.698C335.608 194.205 336.552 193.958 337.645 193.958C338.872 193.958 339.908 194.268 340.755 194.888C341.608 195.502 342.165 196.342 342.425 197.408L340.025 198.058C339.838 197.478 339.528 197.028 339.095 196.708C338.662 196.382 338.168 196.218 337.615 196.218C336.988 196.218 336.472 196.368 336.065 196.668C335.658 196.962 335.358 197.368 335.165 197.888C334.972 198.408 334.875 198.998 334.875 199.658C334.875 200.685 335.105 201.515 335.565 202.148C336.025 202.782 336.708 203.098 337.615 203.098C338.255 203.098 338.758 202.952 339.125 202.658C339.498 202.365 339.778 201.942 339.965 201.388L342.425 201.938C342.092 203.038 341.508 203.885 340.675 204.478C339.842 205.065 338.822 205.358 337.615 205.358ZM348.646 205.358C347.553 205.358 346.593 205.122 345.766 204.648C344.939 204.175 344.293 203.518 343.826 202.678C343.366 201.838 343.136 200.872 343.136 199.778C343.136 198.598 343.363 197.575 343.816 196.708C344.269 195.835 344.899 195.158 345.706 194.678C346.513 194.198 347.446 193.958 348.506 193.958C349.626 193.958 350.576 194.222 351.356 194.748C352.143 195.268 352.726 196.005 353.106 196.958C353.486 197.912 353.629 199.035 353.536 200.328H351.146V199.448C351.139 198.275 350.933 197.418 350.526 196.878C350.119 196.338 349.479 196.068 348.606 196.068C347.619 196.068 346.886 196.375 346.406 196.988C345.926 197.595 345.686 198.485 345.686 199.658C345.686 200.752 345.926 201.598 346.406 202.198C346.886 202.798 347.586 203.098 348.506 203.098C349.099 203.098 349.609 202.968 350.036 202.708C350.469 202.442 350.803 202.058 351.036 201.558L353.416 202.278C353.003 203.252 352.363 204.008 351.496 204.548C350.636 205.088 349.686 205.358 348.646 205.358ZM344.926 200.328V198.508H352.356V200.328H344.926ZM355.567 192.618V190.408H357.977V192.618H355.567ZM355.567 205.058V194.258H357.977V205.058H355.567ZM360.573 205.058V194.258H362.703V196.888L362.443 196.548C362.576 196.188 362.753 195.862 362.973 195.568C363.199 195.268 363.469 195.022 363.783 194.828C364.049 194.648 364.343 194.508 364.663 194.408C364.989 194.302 365.323 194.238 365.663 194.218C366.003 194.192 366.333 194.205 366.653 194.258V196.508C366.333 196.415 365.963 196.385 365.543 196.418C365.129 196.452 364.756 196.568 364.423 196.768C364.089 196.948 363.816 197.178 363.603 197.458C363.396 197.738 363.243 198.058 363.143 198.418C363.043 198.772 362.993 199.155 362.993 199.568V205.058H360.573ZM372.736 205.358C371.656 205.358 370.712 205.115 369.906 204.628C369.099 204.142 368.472 203.472 368.026 202.618C367.586 201.758 367.366 200.772 367.366 199.658C367.366 198.525 367.592 197.532 368.046 196.678C368.499 195.825 369.129 195.158 369.936 194.678C370.742 194.198 371.676 193.958 372.736 193.958C373.822 193.958 374.769 194.202 375.576 194.688C376.382 195.175 377.009 195.848 377.456 196.708C377.902 197.562 378.126 198.545 378.126 199.658C378.126 200.778 377.899 201.768 377.446 202.628C376.999 203.482 376.372 204.152 375.566 204.638C374.759 205.118 373.816 205.358 372.736 205.358ZM372.736 203.098C373.696 203.098 374.409 202.778 374.876 202.138C375.342 201.498 375.576 200.672 375.576 199.658C375.576 198.612 375.339 197.778 374.866 197.158C374.392 196.532 373.682 196.218 372.736 196.218C372.089 196.218 371.556 196.365 371.136 196.658C370.722 196.945 370.416 197.348 370.216 197.868C370.016 198.382 369.916 198.978 369.916 199.658C369.916 200.705 370.152 201.542 370.626 202.168C371.106 202.788 371.809 203.098 372.736 203.098ZM180.31 229.358C179.217 229.358 178.257 229.122 177.43 228.648C176.603 228.175 175.957 227.518 175.49 226.678C175.03 225.838 174.8 224.872 174.8 223.778C174.8 222.598 175.027 221.575 175.48 220.708C175.933 219.835 176.563 219.158 177.37 218.678C178.177 218.198 179.11 217.958 180.17 217.958C181.29 217.958 182.24 218.222 183.02 218.748C183.807 219.268 184.39 220.005 184.77 220.958C185.15 221.912 185.293 223.035 185.2 224.328H182.81V223.448C182.803 222.275 182.597 221.418 182.19 220.878C181.783 220.338 181.143 220.068 180.27 220.068C179.283 220.068 178.55 220.375 178.07 220.988C177.59 221.595 177.35 222.485 177.35 223.658C177.35 224.752 177.59 225.598 178.07 226.198C178.55 226.798 179.25 227.098 180.17 227.098C180.763 227.098 181.273 226.968 181.7 226.708C182.133 226.442 182.467 226.058 182.7 225.558L185.08 226.278C184.667 227.252 184.027 228.008 183.16 228.548C182.3 229.088 181.35 229.358 180.31 229.358ZM176.59 224.328V222.508H184.02V224.328H176.59ZM199.708 229.058V222.498C199.708 221.758 199.525 221.182 199.158 220.768C198.792 220.348 198.295 220.138 197.668 220.138C197.282 220.138 196.935 220.228 196.628 220.408C196.322 220.582 196.078 220.842 195.898 221.188C195.718 221.528 195.628 221.935 195.628 222.408L194.558 221.778C194.552 221.032 194.718 220.375 195.058 219.808C195.405 219.235 195.872 218.788 196.458 218.468C197.045 218.148 197.698 217.988 198.418 217.988C199.612 217.988 200.525 218.348 201.158 219.068C201.798 219.782 202.118 220.722 202.118 221.888V229.058H199.708ZM186.718 229.058V218.258H188.848V221.608H189.148V229.058H186.718ZM193.228 229.058V222.528C193.228 221.775 193.045 221.188 192.678 220.768C192.312 220.348 191.812 220.138 191.178 220.138C190.565 220.138 190.072 220.348 189.698 220.768C189.332 221.188 189.148 221.735 189.148 222.408L188.068 221.688C188.068 220.988 188.242 220.358 188.588 219.798C188.935 219.238 189.402 218.798 189.988 218.478C190.582 218.152 191.245 217.988 191.978 217.988C192.785 217.988 193.458 218.162 193.998 218.508C194.545 218.848 194.952 219.315 195.218 219.908C195.492 220.495 195.628 221.158 195.628 221.898V229.058H193.228ZM211.98 229.368C211.18 229.368 210.52 229.235 210 228.968C209.48 228.702 209.067 228.362 208.76 227.948C208.454 227.535 208.227 227.095 208.08 226.628C207.934 226.162 207.837 225.722 207.79 225.308C207.75 224.888 207.73 224.548 207.73 224.288V218.258H210.17V223.458C210.17 223.792 210.194 224.168 210.24 224.588C210.287 225.002 210.394 225.402 210.56 225.788C210.734 226.168 210.987 226.482 211.32 226.728C211.66 226.975 212.117 227.098 212.69 227.098C212.997 227.098 213.3 227.048 213.6 226.948C213.9 226.848 214.17 226.678 214.41 226.438C214.657 226.192 214.854 225.855 215 225.428C215.147 225.002 215.22 224.462 215.22 223.808L216.65 224.418C216.65 225.338 216.47 226.172 216.11 226.918C215.757 227.665 215.234 228.262 214.54 228.708C213.847 229.148 212.994 229.368 211.98 229.368ZM215.51 229.058V225.708H215.22V218.258H217.64V229.058H215.51ZM233.02 229.058V222.498C233.02 221.758 232.837 221.182 232.47 220.768C232.103 220.348 231.607 220.138 230.98 220.138C230.593 220.138 230.247 220.228 229.94 220.408C229.633 220.582 229.39 220.842 229.21 221.188C229.03 221.528 228.94 221.935 228.94 222.408L227.87 221.778C227.863 221.032 228.03 220.375 228.37 219.808C228.717 219.235 229.183 218.788 229.77 218.468C230.357 218.148 231.01 217.988 231.73 217.988C232.923 217.988 233.837 218.348 234.47 219.068C235.11 219.782 235.43 220.722 235.43 221.888V229.058H233.02ZM220.03 229.058V218.258H222.16V221.608H222.46V229.058H220.03ZM226.54 229.058V222.528C226.54 221.775 226.357 221.188 225.99 220.768C225.623 220.348 225.123 220.138 224.49 220.138C223.877 220.138 223.383 220.348 223.01 220.768C222.643 221.188 222.46 221.735 222.46 222.408L221.38 221.688C221.38 220.988 221.553 220.358 221.9 219.798C222.247 219.238 222.713 218.798 223.3 218.478C223.893 218.152 224.557 217.988 225.29 217.988C226.097 217.988 226.77 218.162 227.31 218.508C227.857 218.848 228.263 219.315 228.53 219.908C228.803 220.495 228.94 221.158 228.94 221.898V229.058H226.54ZM245.412 229.358C244.079 229.358 242.996 229.058 242.162 228.458C241.329 227.858 240.822 227.015 240.642 225.928L243.102 225.548C243.229 226.082 243.509 226.502 243.942 226.808C244.376 227.115 244.922 227.268 245.582 227.268C246.162 227.268 246.609 227.155 246.922 226.928C247.242 226.695 247.402 226.378 247.402 225.978C247.402 225.732 247.342 225.535 247.222 225.388C247.109 225.235 246.856 225.088 246.462 224.948C246.069 224.808 245.466 224.632 244.652 224.418C243.746 224.178 243.026 223.922 242.492 223.648C241.959 223.368 241.576 223.038 241.342 222.658C241.109 222.278 240.992 221.818 240.992 221.278C240.992 220.605 241.169 220.018 241.522 219.518C241.876 219.018 242.369 218.635 243.002 218.368C243.636 218.095 244.382 217.958 245.242 217.958C246.082 217.958 246.826 218.088 247.472 218.348C248.126 218.608 248.652 218.978 249.052 219.458C249.452 219.938 249.699 220.502 249.792 221.148L247.332 221.588C247.272 221.128 247.062 220.765 246.702 220.498C246.349 220.232 245.876 220.082 245.282 220.048C244.716 220.015 244.259 220.102 243.912 220.308C243.566 220.508 243.392 220.792 243.392 221.158C243.392 221.365 243.462 221.542 243.602 221.688C243.742 221.835 244.022 221.982 244.442 222.128C244.869 222.275 245.502 222.455 246.342 222.668C247.202 222.888 247.889 223.142 248.402 223.428C248.922 223.708 249.296 224.045 249.522 224.438C249.756 224.832 249.872 225.308 249.872 225.868C249.872 226.955 249.476 227.808 248.682 228.428C247.896 229.048 246.806 229.358 245.412 229.358ZM257.382 216.708H255.552L257.092 213.008H258.922L257.382 216.708ZM256.432 229.358C255.352 229.358 254.409 229.115 253.602 228.628C252.796 228.142 252.169 227.472 251.722 226.618C251.282 225.758 251.062 224.772 251.062 223.658C251.062 222.525 251.289 221.532 251.742 220.678C252.196 219.825 252.826 219.158 253.632 218.678C254.439 218.198 255.372 217.958 256.432 217.958C257.519 217.958 258.466 218.202 259.272 218.688C260.079 219.175 260.706 219.848 261.152 220.708C261.599 221.562 261.822 222.545 261.822 223.658C261.822 224.778 261.596 225.768 261.142 226.628C260.696 227.482 260.069 228.152 259.262 228.638C258.456 229.118 257.512 229.358 256.432 229.358ZM256.432 227.098C257.392 227.098 258.106 226.778 258.572 226.138C259.039 225.498 259.272 224.672 259.272 223.658C259.272 222.612 259.036 221.778 258.562 221.158C258.089 220.532 257.379 220.218 256.432 220.218C255.786 220.218 255.252 220.365 254.832 220.658C254.419 220.945 254.112 221.348 253.912 221.868C253.712 222.382 253.612 222.978 253.612 223.658C253.612 224.705 253.849 225.542 254.322 226.168C254.802 226.788 255.506 227.098 256.432 227.098ZM267.43 229.058V214.358H269.84V229.058H267.43ZM276.485 229.368C275.685 229.368 275.025 229.235 274.505 228.968C273.985 228.702 273.572 228.362 273.265 227.948C272.958 227.535 272.732 227.095 272.585 226.628C272.438 226.162 272.342 225.722 272.295 225.308C272.255 224.888 272.235 224.548 272.235 224.288V218.258H274.675V223.458C274.675 223.792 274.698 224.168 274.745 224.588C274.792 225.002 274.898 225.402 275.065 225.788C275.238 226.168 275.492 226.482 275.825 226.728C276.165 226.975 276.622 227.098 277.195 227.098C277.502 227.098 277.805 227.048 278.105 226.948C278.405 226.848 278.675 226.678 278.915 226.438C279.162 226.192 279.358 225.855 279.505 225.428C279.652 225.002 279.725 224.462 279.725 223.808L281.155 224.418C281.155 225.338 280.975 226.172 280.615 226.918C280.262 227.665 279.738 228.262 279.045 228.708C278.352 229.148 277.498 229.368 276.485 229.368ZM280.015 229.058V225.708H279.725V218.258H282.145V229.058H280.015ZM289.095 234.158C288.495 234.158 287.918 234.065 287.365 233.878C286.818 233.692 286.325 233.422 285.885 233.068C285.445 232.722 285.085 232.302 284.805 231.808L287.025 230.708C287.231 231.102 287.521 231.392 287.895 231.578C288.275 231.772 288.678 231.868 289.105 231.868C289.605 231.868 290.051 231.778 290.445 231.598C290.838 231.425 291.141 231.165 291.355 230.818C291.575 230.478 291.678 230.052 291.665 229.538V226.468H291.965V218.258H294.075V229.578C294.075 229.852 294.061 230.112 294.035 230.358C294.015 230.612 293.978 230.858 293.925 231.098C293.765 231.798 293.458 232.372 293.005 232.818C292.551 233.272 291.988 233.608 291.315 233.828C290.648 234.048 289.908 234.158 289.095 234.158ZM288.885 229.358C287.891 229.358 287.025 229.108 286.285 228.608C285.545 228.108 284.971 227.428 284.565 226.568C284.158 225.708 283.955 224.738 283.955 223.658C283.955 222.565 284.158 221.592 284.565 220.738C284.978 219.878 285.561 219.202 286.315 218.708C287.068 218.208 287.955 217.958 288.975 217.958C290.001 217.958 290.861 218.208 291.555 218.708C292.255 219.202 292.785 219.878 293.145 220.738C293.505 221.598 293.685 222.572 293.685 223.658C293.685 224.732 293.505 225.702 293.145 226.568C292.785 227.428 292.248 228.108 291.535 228.608C290.821 229.108 289.938 229.358 288.885 229.358ZM289.255 227.198C289.901 227.198 290.421 227.052 290.815 226.758C291.215 226.458 291.505 226.042 291.685 225.508C291.871 224.975 291.965 224.358 291.965 223.658C291.965 222.952 291.871 222.335 291.685 221.808C291.505 221.275 291.221 220.862 290.835 220.568C290.448 220.268 289.948 220.118 289.335 220.118C288.688 220.118 288.155 220.278 287.735 220.598C287.315 220.912 287.005 221.338 286.805 221.878C286.605 222.412 286.505 223.005 286.505 223.658C286.505 224.318 286.601 224.918 286.795 225.458C286.995 225.992 287.298 226.415 287.705 226.728C288.111 227.042 288.628 227.198 289.255 227.198ZM299.499 229.358C298.719 229.358 298.059 229.212 297.519 228.918C296.979 228.618 296.569 228.222 296.289 227.728C296.016 227.235 295.879 226.692 295.879 226.098C295.879 225.578 295.966 225.112 296.139 224.698C296.312 224.278 296.579 223.918 296.939 223.618C297.299 223.312 297.766 223.062 298.339 222.868C298.772 222.728 299.279 222.602 299.859 222.488C300.446 222.375 301.079 222.272 301.759 222.178C302.446 222.078 303.162 221.972 303.909 221.858L303.049 222.348C303.056 221.602 302.889 221.052 302.549 220.698C302.209 220.345 301.636 220.168 300.829 220.168C300.342 220.168 299.872 220.282 299.419 220.508C298.966 220.735 298.649 221.125 298.469 221.678L296.269 220.988C296.536 220.075 297.042 219.342 297.789 218.788C298.542 218.235 299.556 217.958 300.829 217.958C301.789 217.958 302.632 218.115 303.359 218.428C304.092 218.742 304.636 219.255 304.989 219.968C305.182 220.348 305.299 220.738 305.339 221.138C305.379 221.532 305.399 221.962 305.399 222.428V229.058H303.289V226.718L303.639 227.098C303.152 227.878 302.582 228.452 301.929 228.818C301.282 229.178 300.472 229.358 299.499 229.358ZM299.979 227.438C300.526 227.438 300.992 227.342 301.379 227.148C301.766 226.955 302.072 226.718 302.299 226.438C302.532 226.158 302.689 225.895 302.769 225.648C302.896 225.342 302.966 224.992 302.979 224.598C302.999 224.198 303.009 223.875 303.009 223.628L303.749 223.848C303.022 223.962 302.399 224.062 301.879 224.148C301.359 224.235 300.912 224.318 300.539 224.398C300.166 224.472 299.836 224.555 299.549 224.648C299.269 224.748 299.032 224.865 298.839 224.998C298.646 225.132 298.496 225.285 298.389 225.458C298.289 225.632 298.239 225.835 298.239 226.068C298.239 226.335 298.306 226.572 298.439 226.778C298.572 226.978 298.766 227.138 299.019 227.258C299.279 227.378 299.599 227.438 299.979 227.438ZM307.602 229.058V218.258H309.732V220.888L309.472 220.548C309.606 220.188 309.782 219.862 310.002 219.568C310.229 219.268 310.499 219.022 310.812 218.828C311.079 218.648 311.372 218.508 311.692 218.408C312.019 218.302 312.352 218.238 312.692 218.218C313.032 218.192 313.362 218.205 313.682 218.258V220.508C313.362 220.415 312.992 220.385 312.572 220.418C312.159 220.452 311.786 220.568 311.452 220.768C311.119 220.948 310.846 221.178 310.632 221.458C310.426 221.738 310.272 222.058 310.172 222.418C310.072 222.772 310.022 223.155 310.022 223.568V229.058H307.602Z" fill="#1B1B1B"/>
<defs>
<filter id="filter0_b_1356_2814" x="334" y="292.058" width="314.918" height="208.913" filterUnits="userSpaceOnUse" color-interpolation-filters="sRGB">
<feFlood flood-opacity="0" result="BackgroundImageFix"/>
<feGaussianBlur in="BackgroundImageFix" stdDeviation="7.5"/>
<feComposite in2="SourceAlpha" operator="in" result="effect1_backgroundBlur_1356_2814"/>
<feBlend mode="normal" in="SourceGraphic" in2="effect1_backgroundBlur_1356_2814" result="shape"/>
</filter>
<linearGradient id="paint0_linear_1356_2814" x1="375.364" y1="416.209" x2="394.141" y2="397.239" gradientUnits="userSpaceOnUse">
<stop stop-color="#D1D3D4"/>
<stop offset="0.25" stop-color="#F1F2F2"/>
<stop offset="0.5" stop-color="#D1D3D4"/>
<stop offset="0.75" stop-color="#F1F2F2"/>
<stop offset="1" stop-color="#D1D3D4"/>
</linearGradient>
<clipPath id="clip0_1356_2814">
<rect width="285" height="180" fill="white" transform="translate(349 307.058)"/>
</clipPath>
</defs>
</svg>
